PathFileType	4	(X/Y/Z)	D:\TRACE\v60_Jaco2_6-2-23\JustBodyDRS_Motion1_3-v60.trc
DataRate	CameraRate	NumFrames	NumMarkers	Units	OrigDataRate	OrigDataStartFrame	OrigNumFrames
100.00	100.00	      31	9	mm	100.00	1724	      6892
Frame#	Time	front left toe			Front right toe			aft left toe			aft right toe			Arm			FL body			FR body			AL Body			AR Body			
		X1	Y1	Z1	X2	Y2	Z2	X3	Y3	Z3	X4	Y4	Z4	X5	Y5	Z5	X6	Y6	Z6	X7	Y7	Z7	X8	Y8	Z8	X9	Y9	Z9	

1724	17.230	-222.33510	149.74564	-238.61914	166.02182	24.10546	-256.57129	-195.64618	4.62274	381.63589	176.90714	125.39654	372.81531	-133.66237	1224.81177	-344.42575	-112.68668	593.73602	-373.49606	47.55984	593.03333	-379.54715	-78.22752	540.25494	570.56769	77.96248	533.29913	565.12036	
1725	17.240	-221.63229	144.78709	-237.26271	165.33130	23.96043	-256.65298	-196.29602	4.73561	381.41235	176.41313	120.44160	374.27512	-133.93790	1224.92749	-344.74606	-113.17456	593.52917	-373.29523	46.84317	592.48737	-378.88062	-79.35898	540.56982	570.77319	77.21120	533.76227	565.49951	
1726	17.250	-220.98074	138.50670	-236.00157	164.47482	23.81996	-256.80246	-196.83487	5.02750	381.52307	175.98209	114.72598	375.45935	-134.74821	1224.94885	-344.68292	-113.64993	593.03497	-372.93195	46.29467	592.31616	-378.53253	-80.45014	541.03082	571.26465	76.15958	534.23639	565.97876	
1727	17.260	-220.40112	131.22272	-234.93835	163.93842	23.74495	-256.87357	-197.41740	5.05747	381.53220	175.16078	107.70500	376.55539	-135.31342	1224.73779	-344.48822	-113.92532	592.84381	-372.52933	45.91977	592.10297	-377.93604	-81.29887	541.12299	571.87518	75.07586	534.34741	566.40289	
1728	17.270	-220.84621	123.33085	-234.26498	163.48991	23.74348	-256.81284	-198.29776	5.21857	381.67383	174.86768	99.96619	377.69284	-135.86836	1224.38025	-343.84561	-114.09818	592.76874	-372.30194	45.52837	591.87933	-377.56345	-82.27213	541.11493	572.16174	74.09322	534.54120	566.88257	
1729	17.280	-221.36023	114.93000	-233.80453	163.01091	23.59480	-256.81177	-198.85181	5.33325	381.61902	174.87520	91.21967	378.72659	-136.42267	1224.03113	-343.85907	-114.65640	592.78632	-371.95398	45.19207	591.82013	-377.31931	-83.67905	541.45178	572.20068	72.97809	534.56354	567.34009	
1730	17.290	-222.06381	106.03602	-233.26596	162.32924	23.35025	-256.76361	-199.35048	5.57245	381.37704	174.58127	81.45936	379.98935	-137.60863	1223.76221	-344.23227	-115.17075	592.77301	-371.77448	45.06363	591.87860	-377.10828	-84.55314	541.36121	572.51855	71.93531	534.51819	567.76849	
1731	17.300	-222.07213	96.42753	-232.72339	161.56303	23.15137	-256.76678	-199.66763	5.44146	381.33182	174.52209	71.09455	380.97308	-137.72105	1223.53613	-343.51813	-115.53072	592.58942	-371.67542	44.38386	591.74249	-376.70911	-85.28671	541.47137	572.64508	70.79343	534.43402	567.88922	
1732	17.310	-221.43015	86.21557	-232.17674	161.06871	23.10738	-256.71359	-200.36206	5.49690	381.32541	174.10536	60.17513	382.32263	-138.19247	1223.26550	-343.60208	-115.90160	592.06836	-371.47720	44.06002	591.57452	-376.39667	-86.22772	541.47894	572.84485	70.58022	534.88953	568.98584	
1733	17.320	-221.02963	75.81471	-231.35901	160.63370	23.08230	-256.68604	-201.21967	5.72585	381.28867	173.70331	50.21696	383.26276	-138.56157	1223.16064	-343.51874	-116.24370	591.61572	-371.19156	43.71056	591.42596	-376.29834	-87.34331	541.20361	573.13080	69.28673	534.69843	568.52612	
1734	17.330	-221.38477	65.48793	-230.52850	160.28369	22.96163	-256.76547	-201.89066	5.81627	381.37402	173.22729	40.51405	383.73456	-138.16679	1223.28296	-344.11359	-116.61783	591.45709	-371.07309	43.23587	591.04315	-375.75842	-88.14523	541.19226	573.30560	68.68579	534.64465	568.77924	
1735	17.340	-221.56070	55.68694	-229.94711	159.87799	22.69902	-256.82883	-202.11478	5.86213	381.37509	172.43596	31.59072	383.90482	-138.57417	1223.06079	-344.15247	-117.06232	591.19067	-370.99084	43.24324	590.65796	-375.77710	-88.92985	541.27277	573.41199	67.82422	534.56329	569.03601	
1736	17.350	-222.55183	47.01253	-229.44704	159.42876	22.47387	-256.85318	-202.42017	6.03286	381.30496	171.61766	23.18862	383.52493	-139.55879	1222.58813	-343.74191	-117.67989	591.11609	-370.93713	42.90140	590.44727	-375.66458	-89.38062	541.18567	573.49786	67.13294	534.29810	569.32770	
1737	17.360	-223.34285	38.98675	-229.41017	158.93806	22.27280	-256.94983	-202.92751	6.16906	381.23016	171.12103	15.57165	383.06546	-140.26718	1222.17847	-343.55139	-117.89187	590.79773	-370.94235	42.58327	590.25195	-375.59946	-89.50758	540.87933	573.87152	66.62278	533.96069	569.37622	
1738	17.370	-223.90651	32.58963	-230.02864	158.51729	22.19882	-256.94592	-203.43201	6.30740	381.12473	170.52797	13.22416	380.93646	-140.77505	1221.89111	-343.76791	-118.22288	590.54565	-370.96652	42.17751	590.09741	-375.66467	-90.18070	540.67792	573.76770	66.12576	534.02014	569.54321	
1739	17.380	-224.81554	26.78325	-230.53761	158.38185	22.22982	-256.93326	-203.75732	6.52420	381.04367	170.65161	11.32944	381.88870	-142.63225	1221.37756	-343.60754	-118.64703	590.09265	-371.05594	41.87280	589.85590	-375.62527	-91.19257	541.17010	573.42944	65.30527	534.45239	569.43066	
1740	17.390	-225.62863	26.01952	-232.70232	157.92030	22.04577	-256.95544	-204.07808	6.94139	381.10269	171.13028	12.48930	380.43542	-142.06923	1221.69495	-344.41599	-118.77863	589.31812	-371.17358	41.71380	589.51184	-375.76645	-92.01182	542.23907	573.42084	64.28400	535.98419	569.39105	
1741	17.400	-226.28809	23.25398	-232.36154	157.52716	21.99028	-256.58279	-204.10310	7.43155	381.25912	170.61969	11.94395	381.74728	-142.37599	1221.82849	-344.93677	-118.36705	589.31610	-371.10904	41.96140	589.59180	-375.77783	-92.18513	543.18555	573.42255	63.98422	537.09576	569.51050	
1742	17.410	-227.26448	24.41811	-232.49603	157.31624	23.18259	-257.15366	-204.37419	8.95340	380.55087	169.97913	12.07189	382.03271	-143.57729	1221.75354	-346.80191	-118.11469	590.61884	-371.20285	41.84228	590.38232	-375.86200	-93.18626	544.19421	573.18207	63.56093	537.92932	569.31555	
1743	17.420	-226.24478	23.85611	-231.35309	154.13295	26.01886	-256.45636	-204.27586	11.78324	381.02158	170.39259	11.61080	381.60135	-144.91982	1222.08850	-348.34540	-118.93997	592.35620	-371.73120	41.67615	592.14258	-376.17371	-94.06650	543.71368	572.93097	62.52380	537.69653	569.00269	
1744	17.430	-225.69624	23.88106	-232.85657	150.76920	29.99968	-253.56985	-202.71642	14.15430	382.90973	170.28221	11.67050	381.18323	-144.66252	1222.79004	-348.19345	-119.28529	593.32758	-372.47827	40.83609	593.09406	-376.62180	-94.66407	543.38879	572.25018	61.86084	537.74402	568.43475	
1745	17.440	-226.47713	23.50958	-232.77170	147.76433	38.29906	-251.95433	-200.06700	22.13183	382.90817	169.82465	11.87410	380.94839	-144.46877	1224.11365	-347.81015	-118.98293	592.98462	-372.96420	40.73077	593.46021	-377.27170	-95.51115	543.77484	571.41132	61.43731	538.14697	567.65442	
1746	17.450	-226.98743	23.12379	-232.88799	146.01288	47.93162	-251.80792	-198.10258	30.65786	382.69092	169.54527	11.98511	380.80685	-144.05394	1225.65918	-346.77255	-120.28350	593.07843	-373.77811	39.52720	593.18121	-377.98495	-96.08533	544.16925	570.72229	60.67180	538.45306	567.08453	
1747	17.460	-227.15494	22.92242	-232.86229	145.49629	59.14781	-253.14792	-197.92413	42.67715	380.98386	169.61150	12.08055	380.87915	-144.77032	1226.12476	-346.76923	-120.53395	592.45557	-374.20880	38.81577	592.65869	-378.69122	-96.64230	544.10541	570.18500	59.72058	538.39679	566.33606	
1748	17.470	-226.60754	22.21661	-232.49957	145.79247	70.99198	-255.00978	-200.17651	53.87675	379.76620	170.21982	12.24037	380.71167	-145.42833	1225.81311	-347.20703	-122.11577	592.33380	-375.05795	38.16741	592.51996	-379.00754	-96.97357	543.79822	569.47479	59.45861	538.00836	565.88043	
1749	17.480	-227.12270	22.09734	-232.92691	146.06474	82.39325	-256.87109	-203.24048	65.59499	378.41473	170.28801	12.26884	380.67105	-146.61337	1224.35364	-348.38525	-123.21335	592.21869	-375.46912	37.02733	592.06763	-380.10544	-97.48570	543.16193	569.12976	58.92814	537.13068	565.31891	
1750	17.490	-227.34894	21.37946	-233.02699	145.96307	94.32478	-258.29614	-206.47638	77.55038	376.81949	170.30222	12.40163	380.50867	-147.45903	1223.17749	-349.58221	-123.96021	591.55682	-376.13208	36.01840	591.17255	-380.29175	-97.74767	542.77661	568.47766	58.40727	536.34778	564.91010	
1751	17.500	-227.34366	20.99823	-233.01547	145.40826	106.36080	-258.99298	-210.77367	89.92067	375.30618	169.94246	12.63986	380.46463	-150.00171	1221.56177	-350.62091	-124.88733	591.10211	-376.53369	35.03043	590.56012	-380.94437	-98.39560	542.36200	568.18701	58.30967	536.54480	564.14728	
1752	17.510	-227.57132	20.69363	-233.23235	143.37041	117.45953	-259.47461	-213.10330	101.02932	374.78830	169.84950	12.89839	380.31656	-150.42628	1220.35083	-351.38504	-126.09914	590.19885	-377.22333	34.73821	589.70752	-381.54556	-99.48188	542.64233	567.53107	57.31447	536.64612	563.67737	
1753	17.520	-227.72023	20.45233	-233.40942	141.12460	127.92958	-259.94992	-215.06390	111.66110	374.20645	169.71924	13.25941	380.25491	-151.77406	1220.15857	-352.57224	-126.90076	589.41876	-377.51089	33.82713	589.07037	-382.19934	-100.48254	542.95020	567.09467	56.35598	536.96674	562.97260	
1754	17.530	-228.12831	20.35606	-233.43137	140.16338	137.17079	-260.32779	-216.32689	121.06200	373.52652	169.60780	13.70250	380.23175	-151.10535	1220.47705	-353.78058	-127.42601	588.61945	-378.32840	33.45282	588.34778	-383.16403	-101.33207	543.14996	566.54767	55.53248	537.42480	562.47968	
